<?xml version="1.0" standalone="no"?>
<!DOCTYPE svg PUBLIC "-//W3C//DTD SVG 20010904//EN"
 "http://www.w3.org/TR/2001/REC-SVG-20010904/DTD/svg10.dtd">
<svg version="1.0" xmlns="http://www.w3.org/2000/svg"
 width="700.000000pt" height="700.000000pt" viewBox="0 0 700.000000 700.000000"
 preserveAspectRatio="xMidYMid meet">
<metadata>
Created by potrace 1.11, written by Peter Selinger 2001-2013
</metadata>
<g transform="translate(0.000000,700.000000) scale(0.100000,-0.100000)"
fill="#000000" stroke="none">
<path d="M3307 6994 c-1 -1 -112 -4 -247 -8 -302 -8 -521 -18 -668 -31 -111
-10 -187 -17 -212 -20 -14 -1 -56 -6 -95 -10 -38 -4 -77 -8 -85 -10 -8 -2 -37
-6 -65 -9 -131 -17 -134 -17 -260 -41 -49 -9 -100 -19 -111 -21 -12 -2 -66
-16 -120 -30 -326 -84 -518 -193 -584 -329 -31 -63 -30 -117 0 -280 5 -27 12
-68 15 -90 3 -23 7 -50 9 -60 4 -22 17 -108 21 -140 2 -11 10 -69 20 -130 9
-60 18 -126 21 -145 2 -19 9 -64 14 -100 5 -36 14 -103 20 -150 6 -47 13 -103
16 -125 2 -22 7 -51 9 -65 2 -14 7 -50 10 -80 4 -30 8 -66 10 -80 2 -14 7 -54
10 -90 4 -36 9 -73 10 -82 2 -9 6 -49 10 -90 3 -40 8 -84 10 -98 2 -14 7 -52
10 -85 3 -33 8 -76 10 -95 2 -19 7 -64 10 -100 3 -36 8 -81 10 -100 2 -19 7
-71 11 -115 3 -44 8 -93 9 -110 2 -16 6 -68 10 -115 3 -47 8 -103 10 -125 3
-22 7 -78 10 -125 3 -47 8 -110 10 -140 3 -30 7 -95 10 -145 3 -49 7 -119 10
-155 3 -36 7 -112 10 -170 3 -58 8 -136 10 -175 2 -38 7 -140 10 -226 l7 -156
-64 -22 c-719 -258 -1139 -637 -1153 -1041 -2 -52 1 -121 6 -153 68 -411 504
-757 1269 -1006 187 -60 426 -123 600 -156 14 -3 50 -10 80 -16 30 -5 66 -12
80 -15 14 -2 36 -7 50 -9 14 -3 43 -7 65 -11 22 -3 47 -7 55 -9 8 -2 42 -7 75
-10 33 -3 67 -8 75 -10 8 -3 35 -7 60 -10 49 -5 125 -14 180 -20 19 -3 67 -7
105 -11 39 -3 83 -7 98 -9 16 -2 85 -7 155 -10 70 -4 150 -9 177 -11 69 -4
656 -4 730 0 33 3 114 7 180 11 66 4 134 8 150 10 17 2 62 6 100 10 39 3 84 8
100 10 17 2 59 6 95 10 36 3 76 8 90 10 14 2 45 7 70 10 43 6 141 21 205 31
90 14 218 39 360 70 194 43 164 35 315 79 69 19 132 37 140 39 124 33 403 142
560 220 413 206 658 445 742 726 27 89 32 244 12 335 -76 336 -416 641 -964
865 -139 56 -138 56 -193 76 l-48 17 6 141 c3 78 7 179 10 226 12 243 16 311
20 370 2 36 7 103 10 150 4 47 8 110 10 140 2 30 7 93 10 140 3 47 8 105 10
130 2 25 7 81 11 125 12 155 23 276 29 330 3 22 8 67 10 100 8 84 14 143 20
195 3 25 7 68 10 95 14 126 17 152 20 175 2 14 7 54 10 90 4 36 9 73 10 82 2
9 7 48 10 85 4 37 9 77 11 88 2 11 6 43 9 70 4 28 8 61 10 75 4 25 10 67 20
150 3 25 8 56 10 70 3 14 7 45 10 70 3 25 7 56 10 70 3 14 7 41 10 60 13 103
37 266 51 345 9 50 18 105 20 124 3 19 8 50 13 70 41 182 -94 331 -404 446
-138 51 -460 123 -670 149 -16 2 -66 9 -110 15 -73 9 -187 21 -365 36 -36 3
-108 8 -160 11 -52 2 -126 7 -165 9 -117 8 -972 24 -978 19z m628 -419 c138
-4 275 -8 305 -10 30 -2 102 -6 160 -10 58 -3 119 -7 135 -10 17 -2 71 -7 120
-10 50 -4 101 -8 115 -10 14 -2 50 -6 80 -10 173 -19 373 -50 526 -82 39 -8
77 -15 85 -17 58 -10 129 -30 129 -36 0 -10 -238 -68 -350 -84 -19 -3 -44 -8
-56 -10 -12 -2 -45 -8 -75 -12 -30 -4 -61 -8 -69 -9 -8 -1 -42 -5 -75 -9 -33
-4 -76 -10 -95 -12 -40 -6 -71 -9 -185 -19 -44 -3 -91 -8 -105 -10 -50 -7
-280 -21 -510 -31 -214 -10 -918 -10 -1130 0 -242 10 -434 22 -515 30 -22 3
-78 8 -125 11 -47 4 -93 9 -103 11 -10 2 -46 6 -80 9 -34 3 -73 8 -87 10 -14
3 -45 7 -70 10 -130 15 -435 74 -535 103 l-30 9 45 13 c25 7 50 14 55 16 41
10 206 44 230 48 17 3 44 7 60 10 86 15 241 38 275 41 14 2 57 6 95 10 39 3
81 8 95 10 14 2 61 7 105 10 44 3 94 8 110 10 17 2 80 7 140 10 61 4 135 8
165 10 30 2 165 7 300 10 135 4 246 8 247 9 4 3 392 -2 618 -9z m-2140 -4764
c39 -11 122 -31 185 -45 116 -25 196 -39 360 -62 30 -4 57 -8 60 -9 4 -1 93
-10 195 -21 31 -3 150 -12 240 -19 324 -24 1017 -24 1320 0 22 2 81 6 130 10
50 3 104 8 120 10 17 2 62 6 100 10 39 4 81 8 95 10 14 2 48 6 75 10 214 27
549 103 666 150 13 5 16 1 13 -22 -2 -15 -4 -99 -5 -187 -2 -141 -5 -160 -22
-176 -28 -26 -246 -96 -362 -116 -16 -3 -46 -9 -65 -14 -20 -5 -52 -12 -73
-14 -20 -3 -79 -12 -130 -20 -111 -18 -189 -28 -317 -41 -36 -3 -87 -8 -115
-11 -323 -32 -1101 -37 -1395 -10 -19 2 -75 7 -125 10 -49 4 -108 9 -131 12
-23 3 -61 7 -85 9 -24 2 -60 6 -79 9 -19 3 -82 12 -140 21 -117 17 -142 21
-215 35 -27 6 -59 12 -70 14 -51 10 -218 58 -271 77 -91 34 -98 41 -100 102
-2 76 -6 311 -5 319 1 4 18 1 39 -7 20 -7 69 -23 107 -34z"/>
</g>
</svg>
